<?xml version="1.0" encoding="UTF-8"?>
<svg id="Calque_2" data-name="Calque 2" xmlns="http://www.w3.org/2000/svg" viewBox="0 0 293.61 197.91">
  <defs>
    <style>
      .cls-1 {
        fill: #c38441;
      }
    </style>
  </defs>
  <g id="Calque_1-2" data-name="Calque 1">
    <g>
      <path class="cls-1" d="M292.42,137.75c-1.69-2.2-4.16-2.28-4.99-2.31-3.87-.12-7.54.37-10.62.85-3.69.58-7.56,1.54-12.17,3.02-2.94.94-5.41,1.33-7.77,1.21-1.01-.05-2.02-.06-3.03-.08-1.34-.02-2.61-.04-3.82-.14-2.66-.23-5.49-.48-8.16-.94-5.9-1-11.91-2.5-17.71-3.95l-.82-.2c-.23-1.04-.46-1.86-.5-2.02-1.85-6.67-4.71-13.47-9.01-21.38-.49-.91-1-1.8-1.5-2.7-.54-.96-1.09-1.93-1.61-2.9-1.54-2.87-3.14-5.39-4.89-7.69-1.49-1.97-3-3.46-4.61-5.04-1.12-1.1-2.27-2.24-3.51-3.64-.23-.26-.49-.5-.77-.71-1.22-.94-2.36-2-3.57-3.13-1.32-1.23-2.68-2.5-4.28-3.74-2.63-2.03-5.65-3.76-8.98-5.14-2.87-1.18-6.04-2.19-9.97-3.16-3.78-.94-16.93-3.65-23.76-3.65h0c-1.03.02-2.05.02-3.08.02-2.26,0-4.59,0-6.97.18l-.58.04c-1.87.13-3.8.26-5.78.56-6.06.9-12.04,2.11-17.77,3.59-4.4,1.14-9.58,2.62-14.6,4.99-7.89,3.71-14.93,8.37-20.94,13.86-4.59,4.19-8.37,9.12-11.22,14.63-1.19,2.3-2.22,4.62-3.21,6.87-.36.82-.72,1.64-1.09,2.46l-.66,1.45c-1.44,3.17-2.92,6.42-4,9.94-2.23,0-4.6.03-5.37.05-1.19.03-2.44.14-3.74.32-4.06.6-8.05,1.44-11.92,2.25-1.5.32-3,.63-4.5.93-7.12,1.43-22.9,6.34-24.31,6.85-2.78.98-4.48,3.52-4.31,6.47.03.48.02.96.02,1.45v.74c0,2.14.97,4.07,2.66,5.29,1.69,1.22,3.82,1.54,5.84.88,6.83-2.22,13.73-4.1,20.5-5.6,5.12-1.13,9.34-1.94,13.25-2.54.38-.06.76-.12,1.14-.18,1.1-.18,2.15-.35,3.09-.4,3.69-.23,7.54.13,11.79,1.08,2.17.49,4.34,1.23,6.64,2.02.9.31,1.8.62,2.71.91,2.04.66,4.07,1.36,6.1,2.05,3.83,1.31,7.79,2.66,11.82,3.81,3.36.96,6.03,1.5,8.65,1.74l2.62.25c3.53.34,7.17.68,10.84.83,4.89.2,10.12.33,15.46-.36,5.79-.76,11.52-2.59,17.02-5.45,2.09-1.09,4.33-1.98,6.71-2.93,1.62-.65,3.29-1.32,4.96-2.07.11-.05.46-.13.71-.2.34-.09.68-.18,1.01-.28.36-.11.72-.21,1.08-.31.98-.27,2.08-.58,3.21-1.03,2.43-.97,5.15-1.77,8.81-2.59,2.07-.46,3.91-.41,5.79.16,2.98.89,6,1.6,8.56,2.18,1.13.26,2.22.44,3.27.61,1.13.19,2.21.37,3.18.62,4.13,1.05,8.4,2.15,12.52,3.47,6.93,2.24,13.83,3.98,20.87,5.71,8.99,2.22,16.01,3.38,22.79,3.76,2.56.14,4.88.21,7.04.21s4.09-.07,5.98-.21c3.06-.22,6.18-.86,9.27-1.9,5.99-2.02,11.06-2.91,16.02-2.84,1.18,0,2.25-.19,3.02-.34l.41-.08c2.94-.55,4.98-2.94,5.09-5.94.05-.8.44-4.39.62-5.19.18-.78.74-3.17-.96-5.37ZM134.34,135.02c-3.38,1.65-6.19,2.58-8.86,2.92-2.92.37-6.1.43-10.01.19-4.54-.28-17.55-1.37-21.3-2.29-1.68-.41-3.33-.72-4.93-1.01-1.83-.34-3.57-.66-5.19-1.11-2.34-.65-4.67-1.18-6.94-1.7-.37-.08-.73-.17-1.09-.25.69-1.7,1.49-3.41,2.31-5.19l1-2.15c1.23-2.65,2.46-5.3,3.68-7.97,1.38-3.04,3.51-5.85,6.89-9.11,3.21-3.09,7.17-5.96,12.13-8.79,2.56-1.46,5.54-2.44,8.35-3.32,5.32-1.65,11.18-2.98,18.47-4.16,4.1-.67,8.31-.69,13.01-.65,3.84.04,7.71.74,11.81,1.49l.15.03c3.63.66,7.16,1.47,10.5,2.4,5.43,1.51,9.32,3.06,13.19,6.47,2.31,2.04,5.88,4.93,8.49,7.03l.82.66c2.64,2.78,3.29,3.73,4.29,5.54,1.43,2.85,4.09,8.6,6.19,13.58-1.99-.47-4.46-1.03-7.37-1.68-3.01-.67-6.12-1.36-7.29-1.69-2.3-.64-4.29-.94-6.29-.94-2.08,0-4.14.08-6.13.23-1.84.14-3.57.51-5.09.84-.66.14-1.32.29-1.99.41-3.87.7-17.64,5.36-20.9,6.62-2.64,1.02-5.1,2.22-7.48,3.39l-.45.22Z"/>
      <path class="cls-1" d="M284.06,171.42c-1.66-1.44-3.49-1.56-4.12-1.6-2.81-.22-5.79-.65-9.67-1.41-3.65-.71-7.59-1.31-12.4-1.89l-1.5-.18c-2.19-.26-4.45-.54-6.71-.75-1.99-.19-3.99-.4-5.98-.61-1.3-.14-2.61-.27-3.91-.41-.94-.1-1.89-.19-2.83-.28-1.48-.14-2.97-.28-4.45-.45-2.87-.32-5.45-.6-8.09-.79-.25-.02-.49-.02-.74,0-.17-.02-.35-.03-.53-.03h-10.21c-.2,0-.4.01-.59.03-.2-.02-.41-.03-.61-.02-.95.02-1.9.06-2.85.09l-1.34.05c-3.31.11-6.79.41-10.98.94-4.04.52-7.93,1.27-11.57,2.24-4.74,1.27-9.67,2.98-15.52,5.37l-1.88.77c-3.97,1.64-7.72,3.19-11.59,4.22-2.51.67-4.76,1.23-6.86,1.25h-.78c-3.82.06-7.43.12-11.03-.13-3.17-.21-6.27-.61-9.21-1.18-2.47-.48-4.91-1.06-7.49-1.68-1.32-.32-2.65-.63-3.97-.93-7.46-1.7-16.75-3.82-25.9-5.06l-.37-.05c-2.45-.33-4.99-.68-7.68-.69-6.1-.03-11.62-.03-17.33.36-2.21.15-4.42.3-6.64.42-2.4.14-4.8.34-7.12.54-1.82.16-3.64.31-5.48.44-.54.04-1.08.06-1.63.09-.78.04-1.56.08-2.33.14-.84.07-1.68.16-2.53.24-1.46.15-2.84.3-4.2.33-1.14.03-2.15.26-3.03.66-2.2.99-3.63,2.98-3.8,5.31-.1,1.25-.21,2.5-.32,3.74l-.08.96c-.07.76.03,1.52.26,2.22.48,2.02,2.07,3.67,4.22,4.12,3.21.68,6.35.86,9.01.96,3.52.13,6.9-.18,10.18-.47.65-.06,1.29-.12,1.94-.17,3.37-.29,6.17-.52,9.04-.63.78-.03,1.55-.07,2.33-.11,1.79-.09,3.49-.18,5.14-.14,1.61.04,3.23.03,4.84.02.77,0,1.55,0,2.34,0h.55c.18,0,.37-.02.55,0,3.14.3,6.33.73,9.5,1.26,5.95,1,12.27,2.37,19.89,4.32.99.25,1.97.51,2.95.76,3.39.88,6.89,1.79,10.44,2.52,4.86,1.01,10.07,1.55,16.39,1.7,1.29.03,2.57.04,3.87.04,1.55,0,3.13-.02,4.8-.04,1.48-.02,2.92-.11,4.3-.29,5.94-.75,11.91-2.32,18.25-4.78,1.04-.41,2.09-.82,3.13-1.23,2.81-1.11,5.72-2.26,8.56-3.27,4.83-1.71,9.8-2.94,14.8-3.65,3.12-.44,5.73-.75,8.31-.82,2.68-.07,5.44-.07,8.11-.07h1.49c3.24,0,6.3-.01,9.25.39,3.49.48,7.17.89,10.94,1.21,2.41.21,4.89.48,7.29.75l3.55.39c2.9.31,5.79.63,8.69.99,3.27.4,6.49.99,9.91,1.61,1.46.27,2.91.53,4.38.78,1.77.3,4.12.67,6.56.84,3.4.24,5.64-1.21,6.85-4.42.38-1.01.75-1.79,1.17-2.47l2.54-4.08.07-.11c.38-.56,1.15-1.73,1.36-3.43.22-1.81-.48-3.62-1.86-4.82Z"/>
      <path class="cls-1" d="M130.3,50.93l.2,3.91c0,.08,0,.15.02.23,0,.15,0,.29.02.44l.19,1.95s0,.08.01.13c.03,1.14.23,2.27.62,3.52l.06.22c.51,1.76,1.96,4.61,6.06,4.61.18,0,.36,0,.55-.02h.21c.06-.01.11-.02.17-.02.1,0,.21,0,.31-.01l.87-.06c.82-.05,1.63-.11,2.48-.14,2.95-.13,5.29-2.13,5.86-4.98.08-.27.2-.7.26-1.18.32-2.52.51-5.2.63-8.7.05-1.59.07-3.19.08-4.78.02-2.06.03-4,.13-5.95.08-1.52.08-3.02.09-4.46,0-1.66.02-3.22.12-4.74.1-1.51.1-2.96.09-4.35v-1.22s0-3.47,0-3.47c0-3.68.02-7.48-.03-11.24-.01-.87.04-1.8.1-2.79.03-.43.05-.87.07-1.29.12-2.43-1-3.97-1.68-4.68-.83-.86-2.29-1.87-4.65-1.84h-.53c-1.32.03-2.57.05-3.75-.01-3.21-.18-5.91,1.6-7.06,4.6-.15.38-.4,1.01-.54,1.79-.28,1.48-.54,3.1-.54,4.84-.01,1.67-.02,3.35-.02,5.02-.02,5.1-.03,10.38-.21,15.53,0,.21,0,.42.01.64-.02.17-.03.34-.04.51-.07,2.83-.13,5.65-.2,8.48,0,.35.02.69.07,1.03-.07.34-.1.69-.1,1.04v5.43c0,.32.03.63.08.94-.05.36-.07.72-.05,1.08Z"/>
      <path class="cls-1" d="M3.78,109.45c2.32,2.07,4.84,3.58,7,4.78,2.26,1.26,4.55,2.28,6.77,3.26.85.37,1.69.75,2.53,1.14,5.92,2.72,11.93,4.32,19.14,5.88l.95.21c1.83.4,3.72.81,5.78,1.11.41.06.81.09,1.2.09,3.02,0,5.25-1.87,5.92-5.07l.05-.23c.25-1.16.48-2.25.77-3.23,1.08-3.57-.35-6.49-3.81-7.81l-4.35-1.67c-1.92-.74-3.85-1.47-5.77-2.22-8.54-3.3-15.36-6.48-21.46-9.98l-.09-.05c-1.26-.72-2.57-1.47-4-2.15-1.67-.8-3.27-1.24-4.86-1.35-2.57-.38-5.03.85-6.32,3.26-.17.31-.34.61-.51.92-.35.62-.69,1.24-1.03,1.9-.08.16-.16.31-.25.47-.38.7-.9,1.66-1.24,2.88-.42,1.5-.18,3.11.66,4.43.83,1.31,1.82,2.47,2.92,3.45Z"/>
      <path class="cls-1" d="M52.68,49.93c4.99,7.23,10.33,14.91,15.92,22.45,1.73,2.34,3.69,4.98,5.93,7.46,1.23,1.36,2.54,2.34,3.7,3.21l.41.3c1.21.9,2.48,1.35,3.81,1.35.3,0,.6-.02.9-.07,1.58-.24,2.99-1.11,3.98-2.47.34-.47.7-.92,1.07-1.37.62-.76,1.32-1.63,2.01-2.69.18-.29.34-.59.49-.88.37-.7.59-1.48.63-2.27.08-1.55-.38-3-1.43-4.39l-.59-.76c-.41-.53-.83-1.07-1.22-1.61-7.66-10.7-15.05-21.37-21.96-31.38-1.04-1.51-2.2-2.9-3.44-4.14-2.25-2.22-5.5-2.49-8.08-.65-.7.5-1.41.99-2.12,1.49-.56.39-1.12.78-1.66,1.16-1.92,1.35-3.89,3.79-2.35,7.81.95,2.47,2.26,4.9,4.01,7.43Z"/>
      <path class="cls-1" d="M180.2,71.47c.26,1.15.98,2.75,2.91,3.91.97.58,1.8,1.19,2.5,1.81,1.47,1.32,2.99,1.63,4.1,1.63.11,0,.22,0,.33,0,.34-.02.68-.07,1.01-.15,1.43-.35,2.38-1.09,2.76-1.38,1.69-1.27,3.26-2.78,4.92-4.74,2.11-2.47,3.99-5.06,5.81-7.56l.14-.19c3.3-4.54,7.28-9.86,11.77-14.92,1.32-1.49,2.35-2.76,3.25-4.02,2.21-3.08,1.2-6.14-.32-7.8-.4-.44-.79-.9-1.17-1.35-.74-.87-1.5-1.76-2.37-2.64-1.93-1.96-4.7-2.48-7.16-1.38-1.47.63-2.79,1.52-3.92,2.63-2.62,2.58-4.85,5.28-7.29,8.3-5.78,7.16-10.8,14.66-16.3,23.01-1.27,1.93-1.22,3.71-.96,4.86Z"/>
      <path class="cls-1" d="M225.52,117.97c-.18,2.21.61,4.42,2.16,6.08,1.53,1.63,3.67,2.56,5.88,2.56.04,0,.08,0,.12,0,.31,0,.63-.04.94-.1.1-.02.21-.03.33-.05.56-.08,1.42-.21,2.33-.49,3.74-1.14,7.55-1.97,11.59-2.85,1.06-.23,2.11-.46,3.17-.7,7.5-1.68,14.08-3.41,20.13-5.3,1.83-.57,3.36-1.43,4.75-2.29,2.18-1.35,3.21-3.77,2.7-6.3l-.37-1.85c-.21-1.05-.42-2.1-.63-3.12-.5-2.53-2.12-3.73-3.04-4.22-1.56-.83-3.43-.91-5.11-.21-.43.18-1.07.33-1.75.49-.66.16-1.41.33-2.2.58-3.33,1.05-6.73,1.98-9.33,2.67-2.34.62-4.77,1.21-7.12,1.78-6.04,1.47-12.29,2.98-18.38,5.33-4.94,1.91-5.99,5.81-6.17,7.99Z"/>
      <path class="cls-1" d="M32.48,96.53c.76.42,1.53.83,2.29,1.23,1.56.83,3.04,1.62,4.45,2.47.49.29.93.49,1.23.62l1.27.59c1.79.83,3.58,1.66,5.37,2.5,3.12,1.47,5.97,2.72,8.76,3.85.92.39,1.8.55,2.61.55,2.11,0,3.78-1.12,4.79-2.42,1.76-2.26,3.39-4.72,5-7.54,1.15-2.04.94-3.83.56-4.98-.53-1.61-1.72-2.89-3.35-3.62-.13-.06-.26-.13-.39-.2-.35-.18-.69-.36-1.04-.52-.92-.41-1.85-.82-2.77-1.23-1.38-.61-2.76-1.22-4.13-1.84-1.16-.53-2.32-1.07-3.48-1.61-4.53-2.1-9.21-4.26-14.06-6.07-.93-.35-1.84-.59-2.9-.77-2.34-.52-5.16.31-6.85,3.43l-.68,1.27c-.6,1.12-1.17,2.19-1.78,3.21-1.63,2.75-1.18,5.94,1.18,8.14,1.33,1.23,2.62,2.18,3.95,2.92Z"/>
      <path class="cls-1" d="M157.33,67.36c1.48.88,2.94,1.3,4.11,1.63l.55.16c.27.08.56.14.84.18.25.03.57.06.94.06,1.58,0,4.1-.52,5.99-3.35.32-.48.63-.97.94-1.47.32-.51.64-1.02.99-1.52,3.32-4.71,6.11-9.8,8.28-15.14l.1-.24c.66-1.6,1.4-3.42,1.69-5.61.39-2.79-.82-5.26-3.23-6.6-1.51-.85-3.04-1.47-4.46-2.02-3.16-1.22-5.82-.46-7.88,2.28-1.32,1.74-2.4,3.62-3.22,5.58-1.42,3.37-3,6.73-4.71,9.97-.32.62-.63,1.24-.93,1.87-.62,1.27-1.2,2.47-1.87,3.37-.62.83-1.05,1.76-1.32,2.83-1.21,4.8,1.84,7.2,3.21,8.02Z"/>
      <path class="cls-1" d="M95.78,51.05c.56,1.29,1.14,2.56,1.74,3.83.36.78.72,1.57,1.08,2.36.26.58.52,1.15.79,1.72.9,1.95,1.75,3.8,2.38,5.66.36,1.06.86,1.9,1.22,2.51.09.15.17.29.27.47,1.14,2.07,3.16,3.22,5.28,3.22.98,0,1.99-.25,2.94-.76.54-.29,1.09-.55,1.64-.82.84-.41,1.72-.82,2.63-1.34,1.57-.89,3.46-2.7,3.57-6.23.02-.62-.07-1.23-.25-1.82-.04-.12-.08-.26-.12-.4-.16-.57-.38-1.36-.75-2.21-.61-1.41-1.25-2.78-1.88-4.1l-.41-.88c-1.42-3-2.98-6-4.64-8.92-.93-1.64-2.15-3.04-3.6-4.15-2.24-1.73-5.12-1.88-7.54-.4-.44.27-.9.51-1.35.76-.27.14-.53.29-.8.43-4.14,2.29-3.72,6.02-3.34,7.54.25,1,.57,2.25,1.12,3.52Z"/>
      <path class="cls-1" d="M217.36,68.35c-1.61.62-2.76,1.58-3.52,2.21l-.35.29c-.93.75-1.87,1.49-2.8,2.23-2.12,1.68-4.31,3.41-6.46,5.24-.94.81-1.72,1.75-2.41,2.92-1.01,1.75-1.13,3.75-.33,5.61,0,.02.05.12.06.13.41.93.79,1.8,1.11,2.63.96,2.56,3.27,4.11,5.84,4.11.59,0,1.2-.08,1.81-.25.5-.14,1.16-.35,1.85-.75l.35-.2c1.25-.71,2.5-1.43,3.74-2.17,3.72-2.21,7.08-4.87,9.94-7.19,2.62-2.11,3.3-4.76,2-7.93-.13-.3-.25-.61-.38-.91-.31-.72-.6-1.41-.79-1.98-.96-3-3.59-4.8-6.57-4.6-1.35-.03-2.37.33-3.08.61Z"/>
    </g>
  </g>
</svg>